<?xml version="1.0" encoding="UTF-8"?>
<!DOCTYPE svg PUBLIC "-//W3C//DTD SVG 1.1//EN" "http://www.w3.org/Graphics/SVG/1.1/DTD/svg11.dtd">
<!-- Creator: CorelDRAW -->
<svg xmlns="http://www.w3.org/2000/svg" xml:space="preserve" width="25mm" height="25mm" version="1.1" style="shape-rendering:geometricPrecision; text-rendering:geometricPrecision; image-rendering:optimizeQuality; fill-rule:evenodd; clip-rule:evenodd"
viewBox="0 0 762.29 762.29"
 xmlns:xlink="http://www.w3.org/1999/xlink"
 xmlns:xodm="http://www.corel.com/coreldraw/odm/2003">
 <defs>
  <style type="text/css">
   <![CDATA[
    .fil0 {fill:#00A5FF}
    .fil1 {fill:white;fill-rule:nonzero}
   ]]>
  </style>
 </defs>
 <g id="Слой_x0020_1">
  <metadata id="CorelCorpID_0Corel-Layer"/>
  <path class="fil0" d="M60.99 0l640.32 0c33.54,0 60.98,27.44 60.98,60.98l0 640.32c0,33.54 -27.44,60.99 -60.98,60.99l-640.32 0c-33.54,0 -60.99,-27.44 -60.99,-60.99l0 -640.32c0,-33.54 27.44,-60.98 60.99,-60.98z"/>
  <path class="fil1" d="M404.42 132.79l0 -24.65 -5.31 -0.6c-5.56,-0.54 -11.55,-0.82 -17.96,-0.82 -6.4,0 -12.39,0.28 -17.96,0.82l-5.31 0.6 0 24.65c0,7.58 -5.53,13.87 -12.78,15.05 -6.82,1.73 -13.48,3.95 -19.91,6.6 -7.02,2.93 -13.64,6.28 -19.79,10.02 -6.1,3.69 -13.77,2.58 -18.59,-2.25l-0.05 0.05 -17.43 -17.43 -4.25 3.38c-4.54,3.74 -8.96,7.74 -13.21,12l0 0.06c-4.47,4.47 -8.5,8.89 -12.06,13.21l-3.39 4.24 17.43 17.43c5.4,5.4 5.9,13.85 1.5,19.82 -3.49,5.89 -6.61,12.09 -9.29,18.58 -2.81,6.79 -5.13,13.83 -6.89,21.06 -1.68,6.96 -7.91,11.63 -14.77,11.62l0 0.05 -24.65 0 -0.6 5.31c-0.54,5.56 -0.82,11.56 -0.82,17.96 0,6.4 0.28,12.39 0.82,17.96l0.6 5.31 24.65 0c7.58,0 13.87,5.54 15.05,12.79 1.73,6.83 3.95,13.5 6.62,19.94 2.86,6.92 6.21,13.52 10,19.76 3.69,6.1 2.58,13.77 -2.25,18.59l0.05 0.05 -17.43 17.43 3.38 4.24c3.56,4.33 7.59,8.75 12.06,13.22 4.47,4.47 8.89,8.5 13.21,12.06l4.25 3.38 17.43 -17.43c5.4,-5.4 13.85,-5.9 19.82,-1.5 5.88,3.49 12.09,6.6 18.57,9.28 6.8,2.81 13.84,5.13 21.06,6.9 6.96,1.68 11.63,7.91 11.62,14.77l0.05 0 0 24.65 5.3 0.6c5.57,0.54 11.56,0.82 17.97,0.82 6.41,0 12.4,-0.28 17.97,-0.82l5.3 -0.6 0 -24.65c0,-7.58 5.53,-13.87 12.78,-15.05 6.83,-1.73 13.5,-3.95 19.95,-6.62 6.91,-2.86 13.51,-6.21 19.75,-9.99 6.1,-3.69 13.77,-2.58 18.59,2.25l0.05 -0.05 17.43 17.43 4.25 -3.38c4.32,-3.56 8.74,-7.59 13.21,-12.06 4.47,-4.47 8.5,-8.89 12.06,-13.22l3.38 -4.24 -17.43 -17.43c-5.4,-5.4 -5.9,-13.86 -1.5,-19.82 3.5,-5.89 6.61,-12.1 9.29,-18.58 2.81,-6.79 5.13,-13.83 6.89,-21.05 1.68,-6.96 7.91,-11.63 14.77,-11.62l0 -0.05 24.65 0 0.6 -5.31c0.54,-5.56 0.82,-11.55 0.82,-17.96 0,-6.4 -0.28,-12.39 -0.82,-17.96l-0.6 -5.31 -24.65 0c-7.58,0 -13.87,-5.54 -15.05,-12.79 -1.73,-6.84 -3.95,-13.5 -6.62,-19.94 -2.86,-6.92 -6.21,-13.52 -10,-19.76 -3.69,-6.1 -2.58,-13.77 2.25,-18.59l-0.05 -0.05 17.43 -17.43 -3.39 -4.24c-3.56,-4.33 -7.59,-8.74 -12.06,-13.21l-0.73 -0.79c-4.03,-3.99 -8.2,-7.75 -12.48,-11.27l-4.25 -3.38 -17.43 17.43c-5.4,5.4 -13.85,5.9 -19.82,1.5 -5.82,-3.45 -12.04,-6.56 -18.62,-9.29l-0.7 -0.31c-6.56,-2.67 -13.36,-4.88 -20.31,-6.59 -6.96,-1.68 -11.63,-7.91 -11.62,-14.77l-0.05 0zm30.49 -37.57l0 26.09c4.44,1.41 8.79,3 13.05,4.74l0.81 0.31c4.5,1.86 8.95,3.94 13.33,6.22l18.44 -18.44 0.03 0.03c5.03,-5.03 13.07,-5.99 19.2,-1.88 5.75,3.86 11.34,8.02 16.74,12.45 5.12,4.2 10,8.61 14.62,13.17l0.86 0.8c4.65,4.65 9.32,9.82 13.97,15.47 4.17,5.06 8.09,10.3 11.75,15.69 4.78,5.98 4.4,14.74 -1.14,20.28l-18.44 18.44c2.27,4.38 4.35,8.85 6.23,13.4 1.86,4.5 3.55,9.1 5.04,13.79l26.09 0c7.14,0.01 13.53,5.05 14.95,12.33 1.28,6.51 2.28,13.38 2.99,20.61 0.7,7.18 1.06,14.14 1.06,20.82 0,6.68 -0.36,13.63 -1.06,20.82 -0.67,6.96 -1.63,13.59 -2.84,19.88 -1.06,7.38 -7.41,13.06 -15.09,13.06l-26.09 0c-1.5,4.69 -3.18,9.29 -5.04,13.79 -1.88,4.55 -3.96,9.02 -6.23,13.4l18.44 18.44 -0.03 0.03c5.03,5.03 5.99,13.07 1.88,19.2 -3.86,5.75 -8.02,11.34 -12.45,16.73 -4.65,5.66 -9.32,10.83 -13.97,15.48 -4.65,4.65 -9.82,9.32 -15.47,13.97 -5.07,4.16 -10.31,8.09 -15.69,11.75 -5.99,4.78 -14.74,4.4 -20.28,-1.14l-18.44 -18.44c-4.38,2.26 -8.84,4.34 -13.39,6.22 -4.5,1.86 -9.1,3.55 -13.8,5.05l0 26.09c-0.01,7.14 -5.05,13.53 -12.33,14.95 -6.5,1.28 -13.38,2.28 -20.6,2.99 -7.19,0.7 -14.15,1.06 -20.83,1.06 -6.68,0 -13.64,-0.36 -20.83,-1.06 -6.96,-0.68 -13.6,-1.63 -19.89,-2.84 -7.38,-1.07 -13.04,-7.42 -13.04,-15.09l0 -26.09c-4.7,-1.5 -9.3,-3.18 -13.8,-5.05 -4.55,-1.88 -9.01,-3.96 -13.39,-6.22l-18.44 18.44 -0.03 -0.03c-5.03,5.03 -13.07,5.99 -19.2,1.88 -5.75,-3.86 -11.34,-8.02 -16.74,-12.45 -5.65,-4.65 -10.82,-9.32 -15.47,-13.97 -4.66,-4.66 -9.32,-9.83 -13.97,-15.48 -4.16,-5.06 -8.08,-10.3 -11.74,-15.68 -4.78,-5.98 -4.41,-14.74 1.14,-20.28l18.44 -18.44c-2.27,-4.38 -4.35,-8.85 -6.23,-13.4 -1.86,-4.5 -3.55,-9.1 -5.04,-13.79l-26.09 0c-7.14,-0.01 -13.53,-5.05 -14.95,-12.33 -1.28,-6.51 -2.28,-13.38 -2.99,-20.61 -0.7,-7.18 -1.06,-14.14 -1.06,-20.82 0,-6.68 0.36,-13.64 1.06,-20.82 0.67,-6.96 1.63,-13.59 2.84,-19.88 1.06,-7.38 7.41,-13.06 15.09,-13.06l26.09 0c1.5,-4.69 3.18,-9.29 5.04,-13.79 1.88,-4.55 3.96,-9.02 6.23,-13.4l-18.44 -18.44 0.03 -0.03c-5.03,-5.03 -5.99,-13.07 -1.88,-19.2 3.86,-5.75 8.02,-11.35 12.46,-16.73 4.65,-5.65 9.31,-10.82 13.97,-15.47l0.03 0.03c4.86,-4.86 10.02,-9.54 15.44,-14 5.07,-4.17 10.31,-8.09 15.69,-11.75 5.99,-4.78 14.74,-4.4 20.28,1.14l18.44 18.44c4.39,-2.28 8.84,-4.35 13.33,-6.22l0.06 0c4.5,-1.86 9.11,-3.55 13.8,-5.05l0 -26.09c0.01,-7.14 5.05,-13.53 12.33,-14.95 6.51,-1.28 13.39,-2.28 20.62,-2.99 7.18,-0.7 14.14,-1.06 20.82,-1.06 6.68,0 13.63,0.36 20.82,1.06 6.96,0.67 13.6,1.63 19.89,2.84 7.38,1.06 13.06,7.41 13.06,15.09zm-53.76 75.65c32.77,0 62.44,13.29 83.92,34.76 21.48,21.48 34.76,51.15 34.76,83.92 0,32.77 -13.29,62.44 -34.76,83.92 -21.48,21.48 -51.15,34.76 -83.92,34.76 -32.77,0 -62.44,-13.29 -83.92,-34.76 -21.48,-21.48 -34.76,-51.15 -34.76,-83.92 0,-32.77 13.29,-62.44 34.76,-83.92 21.48,-21.48 51.15,-34.76 83.92,-34.76zm62.36 56.32c-15.96,-15.96 -38.01,-25.83 -62.36,-25.83 -24.35,0 -46.41,9.87 -62.36,25.83 -15.96,15.96 -25.83,38.01 -25.83,62.36 0,24.35 9.87,46.4 25.83,62.36 15.96,15.96 38.01,25.83 62.36,25.83 24.35,0 46.41,-9.87 62.36,-25.83 15.96,-15.96 25.83,-38.01 25.83,-62.36 0,-24.35 -9.87,-46.41 -25.83,-62.36zm-45.48 428.38c8.42,0 15.25,6.83 15.25,15.25 0,8.42 -6.83,15.25 -15.25,15.25l-214.95 0c-8.42,0 -15.25,-6.83 -15.25,-15.25 0,-8.42 6.83,-15.25 15.25,-15.25l214.95 0zm181.19 0c8.42,0 15.25,6.83 15.25,15.25 0,8.42 -6.83,15.25 -15.25,15.25l-123.54 0c-8.42,0 -15.25,-6.83 -15.25,-15.25 0,-8.42 6.83,-15.25 15.25,-15.25l123.54 0zm-181.19 -120.04c8.42,0 15.25,6.83 15.25,15.25 0,8.42 -6.83,15.25 -15.25,15.25l-214.95 0c-8.42,0 -15.25,-6.83 -15.25,-15.25 0,-8.42 6.83,-15.25 15.25,-15.25l214.95 0zm181.19 0c8.42,0 15.25,6.83 15.25,15.25 0,8.42 -6.83,15.25 -15.25,15.25l-123.54 0c-8.42,0 -15.25,-6.83 -15.25,-15.25 0,-8.42 6.83,-15.25 15.25,-15.25l123.54 0zm-214.95 90.51c-8.42,0 -15.25,-6.83 -15.25,-15.25 0,-8.42 6.83,-15.25 15.25,-15.25l214.95 0c8.42,0 15.25,6.83 15.25,15.25 0,8.42 -6.83,15.25 -15.25,15.25l-214.95 0zm-181.19 0c-8.42,0 -15.25,-6.83 -15.25,-15.25 0,-8.42 6.83,-15.25 15.25,-15.25l123.54 0c8.42,0 15.25,6.83 15.25,15.25 0,8.42 -6.83,15.25 -15.25,15.25l-123.54 0z"/>
 </g>
</svg>
